<svg xmlns="http://www.w3.org/2000/svg" width="64" height="64" viewBox="0 0 64 64">
  <defs>
    <linearGradient id="ts-grad" x1="0%" y1="0%" x2="100%" y2="100%">
      <stop offset="0%" stop-color="#3b82f6"/>
      <stop offset="100%" stop-color="#22d3ee"/>
    </linearGradient>
  </defs>

  <!-- Fondo oscuro corporativo con esquinas redondeadas -->
  <rect width="64" height="64" rx="16" fill="#080c18"/>

  <!-- Hexágono en degradado azul -> cian (mismo icono de marca del navbar/footer) -->
  <path
    d="M32 10.5c.72 0 1.43.19 2.06.55l14 8.08c1.27.73 2.06 2.09 2.06 3.56v18.62c0 1.47-.79 2.83-2.06 3.56l-14 8.08a4.12 4.12 0 0 1-4.12 0l-14-8.08a4.12 4.12 0 0 1-2.06-3.56V22.69c0-1.47.79-2.83 2.06-3.56l14-8.08c.63-.36 1.34-.55 2.06-.55z"
    fill="none"
    stroke="url(#ts-grad)"
    stroke-width="3"
    stroke-linejoin="round"
  />

  <!-- Marca "T" central -->
  <path d="M25 26h14M32 26v13" stroke="url(#ts-grad)" stroke-width="3.2" stroke-linecap="round"/>
</svg>
